<svg xmlns="http://www.w3.org/2000/svg" version="1.1" xmlns:xlink="http://www.w3.org/1999/xlink" xmlns:svgjs="http://svgjs.dev/svgjs" width="1500" height="1500" viewBox="0 0 1500 1500"><rect width="1500" height="1500" fill="#ffffff"></rect><g transform="matrix(0.6666666666666666,0,0,0.6666666666666666,250.00000781249992,187.66666666666674)"><svg viewBox="0 0 320 360" data-background-color="#ffffff" preserveAspectRatio="xMidYMid meet" height="1687" width="1500" xmlns="http://www.w3.org/2000/svg" xmlns:xlink="http://www.w3.org/1999/xlink"><g id="tight-bounds" transform="matrix(1,0,0,1,0.0000025000000505315256,0)"><svg viewBox="0 0 320 360" height="360" width="320"><g><svg></svg></g><g><svg viewBox="0 0 320 360" height="360" width="320"><g><path transform="translate(-19.44751,3.1739) scale(3.53591,3.53591)" d="M67.6 10.7c0.2 0 1.8 0.8 2.7 1.1-0.3 0.1-1-0.2-1.8-0.5 0.2 0 0.6 0.1 1 0.3-0.2-0.2-1.7-0.7-1.9-0.9M52.7 7.6c0.3-0.1 3.8 0.4 5.4 0.5 0.1-0.1-0.2-0.1-0.6-0.2 0.5-0.1 1.5 0.2 2.2 0.3-2.1 0.1-4.4-0.5-6.4-0.3-0.7 0-0.2-0.2-0.6-0.3M49.8 7.6c1.8 0 3.2 0 0.6 0.2-0.3-0.1-0.7-0.1-0.6-0.2M78.1 15.9c0.2 0 1 0.9 1.4 1.2-0.1 0.1-0.9-0.7-1.3-1 0.1 0.1 0 0-0.1-0.2M76.1 14.6c-0.8-0.7-1.1-0.7-1.2-1.1 0.7 0.4 1.2 0.8 1.2 1.1M63.2 8.3c0.1-0.1 0.3 0.1 0.8 0.2-0.6-0.1-0.5 0-0.3 0.2-0.7-0.1-0.9-0.2-0.7-0.4 0.4 0.2 0.5 0.1 0.2 0M34.8 9.5c0-0.1 0.4-0.3 0.7-0.4-0.3 0.2-0.2 0.3 0.3 0.1 0 0.1-0.6 0.3-1 0.5 0.2-0.1 0.4-0.4 0-0.2M65.2 7.3c-0.3 0.1-1.4-0.5-2.5-0.7-0.6-0.2 2.4 0.5 2.5 0.7M6.2 56.7c0.6 2.5 0.2 2.4 0 0M6.3 41.7c0.1-0.4 0.2-1.5 0.3-1.4-0.3 2.4-0.8 3.5-0.9 5.3 0.3-1.6-0.1 0.9-0.2 1.5 0.1 0.8 0.1-0.5 0.3-0.3 0.2 0.3-0.4 4.5-0.2 2.2-0.2 2.1 0 4.4 0.4 5-0.5 3.2 2 10.4 2.5 11.9 0.1 0.1 0-0.5 0.2-0.1 0.2 1.3 1.1 2.2 1.4 3.6 0.3 0.4 1.5 2.6 1.7 3.1 0.4 0.8 0.6 0.7 1 1.5 1.2 2.3 3.1 4.5 4.9 6.6 5.8 6.8 14.7 12.4 24.6 14.4 9.9 2.1 20.3 0.6 28.4-3.3 0.5-0.3 0.4-0.4 1-0.6 2.8-0.9 6.2-3.8 8.1-4.9 0.9-1 3.3-2.7 3.6-3.7 1.7-1.4 3.4-3.7 4.3-5.2 0.5-0.8 0.9-0.8 1.1-1.3-0.1 0 1.6-2.1 2.1-3.3-0.2 0-0.5 0.6-0.5 0 3.6-6.9 5.6-16.2 4.5-22.6 0.2 7.9-1.8 16.7-5.6 22.3-1.7 3.6-5.2 7.5-8.4 10.3-0.5 0.5-1 1.1-1.6 1.5-1.9 1.6-4 2.9-6.2 4.1-5.2 2.9-11 5.4-17.8 5.5 11.7-1 22.2-6.9 28-14.1-4.4 4.3-6.3 6-11.2 8.5-0.4 0.7-3.7 2.1-5.9 2.7 1.3-0.6 4-1.6 4.9-2.4-7.3 3.5-15.4 5.5-23 4.4 2.9 0 7 0.1 10.9-0.6 0.6-0.2 0.9-0.4 1.6-0.5 7.6-1.7 14.9-5.4 20.1-10.6-3 2.7-7.5 5.9-10.4 6.9 2.7-1.5 7.6-4.4 9.2-6.6-3.2 3.2-9.2 6.4-13 7.8-0.6 0.1 0.4-0.4-0.6 0-1.2 0.3-0.7 0.3-1 0.5-4.6 1.3-9.9 2.4-14.3 2-0.8-0.1-1.1-0.3-1.8-0.3-0.8-0.1-1.5-0.1-2.4-0.1-3.5-0.4-7.3-1.8-10.1-3-1.5-0.7-3-1.2-4.5-2.1-1.2-0.7-2.2-1.5-3.2-2.3-3.8-2.8-7-5.6-10-9.6-5.4-7.5-8.2-16.9-7.8-26.2 0.4-9.3 4.1-18.4 10-25.1-0.3 0.3 0.4-0.7 1-1.3 0 0.2-0.1 0.5 0.6-0.2 0.6-0.7-0.2-0.2 0.1-0.6 6.2-6.8 17-12.3 28.1-12.5 0.4-0.3 1.1-0.7 1.9-0.5 0 0.1-0.5 0.1-0.5 0.1 1.1-0.1 2.1-0.1 2.6 0.1 0.1-0.1-0.4-0.2 0-0.2 0.7 0.2 0.9 0 1.3 0.2-0.3 0-0.6 0-0.8 0.1 2.5 0 4.1 0.6 6.6 0.8-1.3-0.3-1.6-0.3-2.6-0.6 1.1 0.2 1.6 0.4 2.1 0.3-0.2 0-0.1-0.3 0.1-0.2 2 0.5 2.2 0.7 4.3 1.4 0.2-0.2-0.9-0.3-1.2-0.6 2 0.7 3.8 1.2 5 2-0.4-0.3-1.6-0.7-2.5-1.1-0.1 0.1 0.3 0.2 0.4 0.4-1-0.5-2.4-1-3.8-1.2 1.2 0.3 2 0.7 2.5 0.9-1.1-0.2-2.5-0.9-4.1-1.2 2.6 0.8 7.5 2.6 10.5 4.2-1.1-0.7-2.4-1.2-3.1-1.6 0.6 0.1 1.3 0.5 1.3 0.3 0.7 0.3 1.6 1 2.1 1.1-0.9-0.6-2.7-1.5-3.3-1.8 7.5 3.4 14.2 9.1 18.5 16.4 0.4 0.7 1 2.3 1.5 2.5-0.1-0.5-0.5-0.8-0.9-1.6 0.2 0 0.2-0.3 0-0.6-0.4-0.5 0 0.4-0.4-0.1-1.8-3.3-4-6.2-7.4-9.4 1.9 1.8 0.5 0.5 0.1-0.1 2.6 2.3 5.6 6.2 6.9 8.2-0.2-0.3-0.3-0.5-0.2-0.5 2.4 4.1 3.9 7.8 5.4 13.1 0.1 0.1 0-0.4 0.2-0.1 1 4.2 1.3 7.7 1.2 10.9 0.8-5.4-1-13.8-4.2-20.4-0.4-0.8-0.4-0.2-0.8-1.1 0-0.3-0.3-0.9-0.5-1.3-4-6.6-8.9-11.3-14.7-15 0.4 0.2 1.2 0.8 1.2 0.7-10.8-7.1-23.3-8.1-33.6-5.9-0.7 0.3-1 0.6-1.8 1 1.5-0.5 2.4-0.6 3.8-0.9 0.3-0.3-1.3 0.1-0.6-0.2 0.1 0.1 1.4-0.2 1.7-0.1 0 0.1-0.4 0.2-0.5 0.3 3.3-0.7 6.7-0.8 9.6-0.6-1.7 0.1-4.8-0.2-5.8 0.3 1-0.1 2.4-0.2 3.3-0.1-1.2 0-3.4 0.1-4.4 0.2-0.1-0.1 1.6-0.3 0.5-0.3-0.5 0.1-1.3 0.1-1.6 0.4-8.6 0.8-17 5.3-22.9 10.6-1.2 1-2.6 2.1-3.5 3.2-2.2 2.5-3.6 5-5.2 7.2 1-2.1 3.2-5.3 5.8-8 2.6-2.7 5.4-5 6.9-6.2 0 0.4 2.4-1.5 3.3-2.1-0.6 0.5 0.4-0.2 0.6-0.1 3.2-1.9 5.8-2.6 8.7-3.7-0.7 0.2-1.3 0.4-1.4 0.3 0.7-0.2 1.1-0.4 1-0.5-2.8 0.8-7.2 2.7-10.7 4.8 6.3-4.3 14.3-6.9 22.2-7 7.9-0.2 15.6 1.8 21.7 5 4.1 1.8 8 5.1 11.1 8.3 0.9 0.8 0.2-0.2 1.5 1.2-0.4-0.2-0.7-0.4-0.2 0.2 0.8 0.9-0.2-0.7 1.1 0.9-0.1 0-0.5-0.5-0.5-0.3 3.5 3.1 6.2 8.7 7.8 12.4-0.4-1.5-1.4-3.6-2.2-5.1 2.4 4.4 3.2 7 4.2 10.9 0.4 0.3-0.2-1.4 0.2-0.6 0.1 0.6 0.2 2.5 0.6 2.8-0.3-1.9-0.8-4.2-1.2-4.6 0.3 0.2-0.5-2.3-1-2.9-0.2-1.6-1.6-4.4-2.8-6.5-4.3-8.4-12-15.3-20.6-19.1 0-0.2-0.5-0.4-0.7-0.6-8.5-3.6-18.7-4.6-28.5-2.3-9.9 2.4-19.2 8.1-25.8 16.3 0.3-1 2.8-2.9 2.9-3.7-2.9 3.1-6 7.2-8.1 11.6-2.2 4.4-3.4 8.9-3.9 12.2" fill="#202046" fill-rule="nonzero" stroke="none" stroke-width="1" stroke-linecap="butt" stroke-linejoin="miter" stroke-miterlimit="10" stroke-dasharray="" stroke-dashoffset="0" font-family="none" font-weight="none" font-size="none" text-anchor="none" style="mix-blend-mode: normal" data-fill-palette-color="tertiary"></path></g><g transform="matrix(1,0,0,1,48,141.61317872039461)"><svg viewBox="0 0 224 76.77364255921077" height="76.77364255921077" width="224"><g><svg viewBox="0 0 354.4210358263835 121.47408" height="76.77364255921077" width="224"><g transform="matrix(1,0,0,1,0,27.724326004691257)"><svg viewBox="0 0 224 66.02542799061749" height="66.02542799061749" width="224"><g id="textblocktransform"><svg viewBox="0 0 224 66.02542799061749" height="66.02542799061749" width="224" id="textblock"><g><svg viewBox="0 0 224 37.898625130820186" height="37.898625130820186" width="224"><g transform="matrix(1,0,0,1,0,0)"><svg width="224" viewBox="2.0166666666666666 -35.95 220.44568627131633 37.300000000000004" height="37.898625130820186" data-palette-color="#202046"><path d="M13.75-35.25Q18.1-35.25 20.2-33.55 22.3-31.85 22.4-31.75L22.4-31.75Q22.9-31.4 22.9-31.05L22.9-31.05Q22.9-30.85 22.7-30.65L22.7-30.65Q22.55-30.45 22.1-29.8 21.65-29.15 21.4-29.15L21.4-29.15Q21.15-29.15 20.75-29.4L20.75-29.4 20.4-29.7Q16.6-32.45 13.9-32.45L13.9-32.45Q10.45-32.45 8.68-30.88 6.9-29.3 6.9-26.9L6.9-26.9Q6.9-24.85 8.38-23.4 9.85-21.95 12.25-20.65L12.25-20.65Q12.95-20.35 13.7-20.1L13.7-20.1Q16.2-19.15 18.07-18.07 19.95-17 21.45-14.83 22.95-12.65 22.95-9.35L22.95-9.35Q22.95-3.7 19.1-1.63 15.25 0.45 10.5 0.45L10.5 0.45Q7.75 0.45 5.53-0.8 3.3-2.05 2.35-3L2.35-3Q1.85-3.45 2.1-3.9L2.1-3.9Q2.15-4 2.53-4.7 2.9-5.4 3.2-5.4L3.2-5.4 3.3-5.4Q3.45-5.4 3.58-5.33 3.7-5.25 3.88-5.05 4.05-4.85 4.3-4.6L4.3-4.6Q4.95-3.95 6.85-3.13 8.75-2.3 10-2.3L10-2.3Q12.65-2.3 15.05-3.43 17.45-4.55 17.45-8.2L17.45-8.2Q17.45-9.75 16.07-10.9 14.7-12.05 11.8-13.6L11.8-13.6 9.65-14.8Q6.15-16.8 4.17-19.1 2.2-21.4 2.2-25.15L2.2-25.15Q2.2-28.25 3.98-30.55 5.75-32.85 8.43-34.05 11.1-35.25 13.75-35.25L13.75-35.25ZM47-34.9Q50-32.9 51.82-29.5 53.65-26.1 54.37-22.88 55.1-19.65 55.1-17.8L55.1-17.8Q55.1-14.7 54.12-10.6 53.15-6.5 49.95-2.98 46.75 0.55 40.7 0.55L40.7 0.55Q32.4 0.55 28.9-9.1L28.9-9.1Q27.35-13.45 27.15-18.8L27.15-18.8Q27.15-23.2 29-27.18 30.85-31.15 33.87-33.55 36.9-35.95 40.1-35.95L40.1-35.95Q43-35.95 44.42-35.8 45.85-35.65 47-34.9L47-34.9ZM40.45-2.25Q45.75-2.25 48.35-6.68 50.95-11.1 50.95-17.8L50.95-17.8Q50.95-21.9 49.72-25.38 48.5-28.85 46.27-30.93 44.05-33 41.15-33L41.15-33Q40.9-33 39.82-33 38.75-33 37.95-32.65 37.15-32.3 36.5-31.6L36.5-31.6Q34.85-29.95 33.72-28.58 32.6-27.2 31.47-24.5 30.35-21.8 30.35-18.25L30.35-18.25Q30.35-14.05 31.37-10.43 32.4-6.8 34.65-4.53 36.9-2.25 40.45-2.25L40.45-2.25ZM64.09-33.7Q64.2-32.55 64.57-31.2 64.95-29.85 65.65-27.7L65.65-27.7Q66.15-26.15 68.22-20.75 70.3-15.35 71-13.8L71-13.8Q71.65-12.15 72.75-8.75L72.75-8.75 73.84-5.35 74.5-6.5 75.9-9.25Q76.2-9.95 77.75-12.9L77.75-12.9Q81-18.95 82-21.3L82-21.3Q82.75-23.05 84.15-26L84.15-26Q84.5-26.8 85.02-27.93 85.55-29.05 85.75-29.55L85.75-29.55Q85.84-29.85 86.37-31.43 86.9-33 87.42-34.1 87.95-35.2 88.3-35.2L88.3-35.2Q88.7-35.2 88.7-34.05L88.7-34.05Q88.7-33.4 88.65-32.77 88.59-32.15 88.55-31.65L88.55-31.65 88.4-29.85Q88.25-27.25 88.25-20.25L88.25-20.25Q88.25-17.8 88.17-14.03 88.09-10.25 88-8.95L88-8.95 87.95-0.8 87.95-0.65Q87.95-0.15 87.4-0.15L87.4-0.15Q86.05-0.15 85.65-0.2L85.65-0.2Q85.4-0.25 85.4-0.6L85.4-0.6 85.45-1.45Q85.45-3.6 85.55-8.47 85.65-13.35 85.8-14.95L85.8-14.95Q85.84-16.15 85.84-20L85.84-20Q85.84-22.1 85.8-23.2L85.8-23.2Q84.75-21.35 84.55-20.9L84.55-20.9Q84.15-20.2 83.4-18.7L83.4-18.7Q83.25-18.4 83.05-18 82.84-17.6 82.59-17.2L82.59-17.2Q81.95-15.9 79.7-11.35L79.7-11.35 78.09-8.05Q77.59-7.2 76.45-4.95 75.3-2.7 74.9-1.9L74.9-1.9 74.09-0.3Q73.8 0.35 73.37 0.85 72.95 1.35 72.65 1.35L72.65 1.35Q72.34 1.35 72.22 1.2 72.09 1.05 72 0.73 71.9 0.4 71.84 0.25L71.84 0.25Q71.75-0.05 70.75-2.93 69.75-5.8 69.2-7.05L69.2-7.05Q68.5-8.75 67.4-11.5 66.3-14.25 65.95-15.45L65.95-15.45Q65.5-16.7 65.15-17.85L65.15-17.85 64.4-20.2Q63.45-23 63.3-23.55L63.3-23.55 63.2-21.7Q63.15-20.65 63.15-18.5L63.15-18.5Q63.15-11.4 62.95-8.6L62.95-8.6Q62.9-7.9 62.9-5.75L62.9-5.75 62.95-0.7 62.95-0.55Q62.95 0.35 62.25 0.25L62.25 0.25Q62 0.15 61.45 0.15 60.9 0.15 60.65 0.15L60.65 0.15Q60.4 0.15 60.4-0.2L60.4-0.2 60.45-1.1 60.35-5.9 60.2-16.35Q60.2-18.9 60.3-22.48 60.4-26.05 60.5-27.3L60.5-27.3Q60.65-28.95 60.72-30.93 60.8-32.9 60.8-34.15L60.8-34.15 60.8-34.35Q60.8-35 60.95-35.08 61.1-35.15 61.45-35.1L61.45-35.1 61.85-35.1Q62.65-35.1 63.1-35.15L63.1-35.15Q63.95-35.15 64.09-33.7L64.09-33.7ZM115.69-33.25L115.69-32.7Q115.69-31.55 115.49-31.55L115.49-31.55Q115.19-31.55 114.82-31.63 114.44-31.7 113.89-31.7L113.89-31.7 105.89-31.7 99.69-31.75Q99.39-31.75 97.44-31.6L97.44-31.6 96.29-31.5 96.19-30.15Q96.14-29.4 96.14-27.8L96.14-27.8Q96.14-27 96.24-25.7L96.24-25.7Q96.34-24.5 96.34-23.95L96.34-23.95 96.34-21.95Q96.34-21.15 96.39-20.7L96.39-20.7Q96.84-20.65 97.74-20.65L97.74-20.65 99.74-20.65Q100.04-20.65 100.94-20.75L100.94-20.75Q102.24-20.85 103.19-20.85L103.19-20.85Q103.59-20.85 105.99-20.7L105.99-20.7 107.09-20.65Q107.49-20.65 108.24-20.73 108.99-20.8 109.69-20.8L109.69-20.8 111.34-20.75Q112.64-20.65 113.14-20.65L113.14-20.65Q113.69-20.65 113.89-20.7L113.89-20.7 114.19-20.75Q114.54-20.75 114.69-20.53 114.84-20.3 114.79-20.1L114.79-20.1Q114.74-19.75 114.74-19.23 114.74-18.7 114.69-18.3L114.69-18.3Q114.64-17.9 114.54-17.82 114.44-17.75 113.94-17.75L113.94-17.75 111.94-17.95Q108.19-18.3 107.04-18.3L107.04-18.3Q102.79-18.3 100.79-18.15L100.79-18.15Q99.99-18.05 99.04-18.05 98.09-18.05 97.84-18.05L97.84-18.05Q96.89-18.05 96.44-18.1L96.44-18.1 96.29-17.3Q96.19-16.4 96.19-15.7L96.19-15.7Q96.19-15.1 96.29-14.3L96.29-14.3Q96.39-13.5 96.39-12.9L96.39-12.9 96.44-6.95 96.39-4.45Q96.34-4 96.34-3.2L96.34-3.2Q96.99-3.15 98.24-3.15L98.24-3.15Q99.29-3.1 101.49-3.1L101.49-3.1 104.19-3.05Q105.04-3 106.79-3L106.79-3Q107.84-3 109.54-3.1L109.54-3.1 111.64-3.15Q112.84-3.15 113.64-3.1 114.44-3.05 114.84-3.05L114.84-3.05Q115.24-3.05 115.32-2.9 115.39-2.75 115.39-2.25L115.39-2.25Q115.39-1.9 115.34-1.53 115.29-1.15 115.29-0.7L115.29-0.7Q115.29-0.35 115.04-0.23 114.79-0.1 114.24-0.1L114.24-0.1Q113.69-0.1 113.34-0.15L113.34-0.15Q111.99-0.3 107.89-0.3L107.89-0.3Q105.39-0.3 104.29-0.25L104.29-0.25Q103.44-0.2 101.49-0.2L101.49-0.2 96.84-0.25Q96.04-0.3 94.94-0.3L94.94-0.3Q94.24-0.3 94.02-0.48 93.79-0.65 93.79-1.05L93.79-1.05 93.84-1.85Q93.89-2.05 93.89-2.3L93.89-2.3Q93.89-2.45 93.84-3.03 93.79-3.6 93.79-5.15L93.79-5.15Q93.79-6.65 93.69-10.05L93.69-10.05Q93.54-12.85 93.54-15.45L93.54-15.45Q93.54-16.55 93.79-21.8L93.79-21.8Q93.84-22.85 93.89-23.9 93.94-24.95 93.94-25.8L93.94-25.8Q93.94-31.6 93.79-33.45L93.79-33.45Q93.64-34.65 95.24-34.65L95.24-34.65Q95.64-34.65 96.54-34.55L96.54-34.55Q97.34-34.45 97.74-34.45L97.74-34.45 100.89-34.55Q104.29-34.75 106.14-34.75L106.14-34.75Q108.29-34.75 112.19-34.65L112.19-34.65Q113.44-34.6 114.84-34.6L114.84-34.6Q115.44-34.6 115.59-34.3 115.74-34 115.72-33.68 115.69-33.35 115.69-33.25L115.69-33.25ZM145.89-35.25Q150.24-35.25 152.34-33.55 154.44-31.85 154.54-31.75L154.54-31.75Q155.04-31.4 155.04-31.05L155.04-31.05Q155.04-30.85 154.84-30.65L154.84-30.65Q154.69-30.45 154.24-29.8 153.79-29.15 153.54-29.15L153.54-29.15Q153.29-29.15 152.89-29.4L152.89-29.4 152.54-29.7Q148.74-32.45 146.04-32.45L146.04-32.45Q142.59-32.45 140.81-30.88 139.04-29.3 139.04-26.9L139.04-26.9Q139.04-24.85 140.51-23.4 141.99-21.95 144.39-20.65L144.39-20.65Q145.09-20.35 145.84-20.1L145.84-20.1Q148.34-19.15 150.21-18.07 152.09-17 153.59-14.83 155.09-12.65 155.09-9.35L155.09-9.35Q155.09-3.7 151.24-1.63 147.39 0.45 142.64 0.45L142.64 0.45Q139.89 0.45 137.66-0.8 135.44-2.05 134.49-3L134.49-3Q133.99-3.45 134.24-3.9L134.24-3.9Q134.29-4 134.66-4.7 135.04-5.4 135.34-5.4L135.34-5.4 135.44-5.4Q135.59-5.4 135.71-5.33 135.84-5.25 136.01-5.05 136.19-4.85 136.44-4.6L136.44-4.6Q137.09-3.95 138.99-3.13 140.89-2.3 142.14-2.3L142.14-2.3Q144.79-2.3 147.19-3.43 149.59-4.55 149.59-8.2L149.59-8.2Q149.59-9.75 148.21-10.9 146.84-12.05 143.94-13.6L143.94-13.6 141.79-14.8Q138.29-16.8 136.31-19.1 134.34-21.4 134.34-25.15L134.34-25.15Q134.34-28.25 136.11-30.55 137.89-32.85 140.56-34.05 143.24-35.25 145.89-35.25L145.89-35.25ZM161.94-35.25Q162.59-35.2 163.21-35.23 163.84-35.25 164.28-35.25L164.28-35.25Q165.38-35.25 165.88-35.2L165.88-35.2Q166.48-35.15 166.73-34.95 166.98-34.75 166.98-34.4L166.98-34.4Q166.98-34.15 166.94-33.85 166.88-33.55 166.84-33.3L166.84-33.3Q166.28-29.05 166.23-24.55L166.23-24.55Q166.19-23.25 166.19-20.55L166.19-20.55 166.23-14.5Q166.28-13.75 166.28-12.95L166.28-12.95 166.34-10.95Q166.44-8.35 166.44-7.1L166.44-7.1Q166.44-6.15 166.38-5.95L166.38-5.95Q166.34-5.75 166.34-4.8L166.34-4.8 166.38-2.05Q166.44-1.45 166.44-0.55L166.44-0.55Q166.48 0.1 166.06 0.28 165.63 0.45 164.94 0.4L164.94 0.4 160.38 0.4Q159.63 0.45 159.44 0.08 159.23-0.3 159.19-1.15L159.19-1.15Q159.09-1.5 159.28-3L159.28-3Q159.48-4.4 159.48-5.4L159.48-5.4Q159.48-5.75 159.84-12.15L159.84-12.15Q160.13-16.85 160.13-17.3L160.13-17.3 160.23-22.2 160.34-26.75 160.44-29.45 160.53-31.25 160.53-33.35Q160.53-35.3 161.53-35.3L161.53-35.3Q161.78-35.3 161.94-35.25L161.94-35.25ZM196.13-35.95Q196.73-35.9 196.86-35.65 196.98-35.4 196.96-34.98 196.93-34.55 196.93-34.35L196.93-34.35Q196.98-33.7 196.68-33.45 196.38-33.2 195.73-33.2L195.73-33.2Q195.33-33.2 194.21-33.15 193.08-33.1 191.48-33.15L191.48-33.15 191.28-33.15 191.18-24.1 191.13-15.3Q191.13-13.3 191.36-10.23 191.58-7.15 191.63-6.35L191.63-6.35Q191.93-2.35 191.93-1.85L191.93-1.85Q191.98-0.85 191.48-0.55 190.98-0.25 189.73-0.25L189.73-0.25 187.53-0.3Q187.28-0.3 179.33-0.45L179.33-0.45 176.23-0.5Q175.73-0.5 175.73-1.5L175.73-1.5Q175.73-1.85 175.83-2.85L175.83-2.85Q175.93-4.15 175.93-4.85L175.93-4.85Q175.83-6.15 175.83-9.4L175.83-9.4Q175.83-13.75 175.96-18.7 176.08-23.65 176.28-26.15L176.28-26.15Q176.38-27.45 176.38-29.65L176.38-29.65Q176.38-32.1 176.23-33.35L176.23-33.35 175.33-33.4 171.18-33.3Q170.78-33.3 170.78-34.1L170.78-34.1 170.83-35.2Q170.83-35.6 170.96-35.73 171.08-35.85 171.38-35.85L171.38-35.85Q171.58-35.85 171.88-35.8 172.18-35.75 172.58-35.75L172.58-35.75 183.23-35.8 191.93-35.9Q193.98-35.95 196.13-35.95L196.13-35.95ZM222.43-33.25L222.43-32.7Q222.43-31.55 222.23-31.55L222.23-31.55Q221.93-31.55 221.56-31.63 221.18-31.7 220.63-31.7L220.63-31.7 212.63-31.7 206.43-31.75Q206.13-31.75 204.18-31.6L204.18-31.6 203.03-31.5 202.93-30.15Q202.88-29.4 202.88-27.8L202.88-27.8Q202.88-27 202.98-25.7L202.98-25.7Q203.08-24.5 203.08-23.95L203.08-23.95 203.08-21.95Q203.08-21.15 203.13-20.7L203.13-20.7Q203.58-20.65 204.48-20.65L204.48-20.65 206.48-20.65Q206.78-20.65 207.68-20.75L207.68-20.75Q208.98-20.85 209.93-20.85L209.93-20.85Q210.33-20.85 212.73-20.7L212.73-20.7 213.83-20.65Q214.23-20.65 214.98-20.73 215.73-20.8 216.43-20.8L216.43-20.8 218.08-20.75Q219.38-20.65 219.88-20.65L219.88-20.65Q220.43-20.65 220.63-20.7L220.63-20.7 220.93-20.75Q221.28-20.75 221.43-20.53 221.58-20.3 221.53-20.1L221.53-20.1Q221.48-19.75 221.48-19.23 221.48-18.7 221.43-18.3L221.43-18.3Q221.38-17.9 221.28-17.82 221.18-17.75 220.68-17.75L220.68-17.75 218.68-17.95Q214.93-18.3 213.78-18.3L213.78-18.3Q209.53-18.3 207.53-18.15L207.53-18.15Q206.73-18.05 205.78-18.05 204.83-18.05 204.58-18.05L204.58-18.05Q203.63-18.05 203.18-18.1L203.18-18.1 203.03-17.3Q202.93-16.4 202.93-15.7L202.93-15.7Q202.93-15.1 203.03-14.3L203.03-14.3Q203.13-13.5 203.13-12.9L203.13-12.9 203.18-6.95 203.13-4.45Q203.08-4 203.08-3.2L203.08-3.2Q203.73-3.15 204.98-3.15L204.98-3.15Q206.03-3.1 208.23-3.1L208.23-3.1 210.93-3.05Q211.78-3 213.53-3L213.53-3Q214.58-3 216.28-3.1L216.28-3.1 218.38-3.15Q219.58-3.15 220.38-3.1 221.18-3.05 221.58-3.05L221.58-3.05Q221.98-3.05 222.06-2.9 222.13-2.75 222.13-2.25L222.13-2.25Q222.13-1.9 222.08-1.53 222.03-1.15 222.03-0.7L222.03-0.7Q222.03-0.35 221.78-0.23 221.53-0.1 220.98-0.1L220.98-0.1Q220.43-0.1 220.08-0.15L220.08-0.15Q218.73-0.3 214.63-0.3L214.63-0.3Q212.13-0.3 211.03-0.25L211.03-0.25Q210.18-0.2 208.23-0.2L208.23-0.2 203.58-0.25Q202.78-0.3 201.68-0.3L201.68-0.3Q200.98-0.3 200.76-0.48 200.53-0.65 200.53-1.05L200.53-1.05 200.58-1.85Q200.63-2.05 200.63-2.3L200.63-2.3Q200.63-2.45 200.58-3.03 200.53-3.6 200.53-5.15L200.53-5.15Q200.53-6.65 200.43-10.05L200.43-10.05Q200.28-12.85 200.28-15.45L200.28-15.45Q200.28-16.55 200.53-21.8L200.53-21.8Q200.58-22.85 200.63-23.9 200.68-24.95 200.68-25.8L200.68-25.8Q200.68-31.6 200.53-33.45L200.53-33.45Q200.38-34.65 201.98-34.65L201.98-34.65Q202.38-34.65 203.28-34.55L203.28-34.55Q204.08-34.45 204.48-34.45L204.48-34.45 207.63-34.55Q211.03-34.75 212.88-34.75L212.88-34.75Q215.03-34.75 218.93-34.65L218.93-34.65Q220.18-34.6 221.58-34.6L221.58-34.6Q222.18-34.6 222.33-34.3 222.48-34 222.46-33.68 222.43-33.35 222.43-33.25L222.43-33.25Z" opacity="1" transform="matrix(1,0,0,1,0,0)" fill="#202046" class="wordmark-text-0" data-fill-palette-color="primary" id="text-0"></path></svg></g></svg></g><g transform="matrix(1,0,0,1,55.888000000000005,46.845580957203694)"><svg viewBox="0 0 168.112 19.179847033413797" height="19.179847033413797" width="168.112"><g transform="matrix(1,0,0,1,0,0)"><svg width="168.112" viewBox="2 -37.35 384.3 43.84" height="19.179847033413797" data-palette-color="#3886ce"><path d="M48.63-12.35L48.63-12.35Q48.63-10.3 48.56-8.33 48.49-6.35 48.29-4.35L48.29-4.35Q46.24-4.25 44.36-4.13 42.48-4 40.43-3.61L40.43-3.61Q41.02-7.13 41.02-10.69L41.02-10.69Q41.02-11.33 40.92-12.87 40.82-14.4 40.65-16.09 40.48-17.77 40.21-19.19 39.94-20.61 39.6-21.04L39.6-21.04Q39.36-21.34 38.87-21.48 38.38-21.63 37.84-21.7 37.3-21.78 36.77-21.8 36.23-21.83 35.89-21.83L35.89-21.83Q35.3-21.83 34.5-21.78 33.69-21.73 32.86-21.61 32.03-21.48 31.27-21.24 30.52-21 30.03-20.65L30.03-20.65Q29.79-20.46 29.61-19.63 29.44-18.8 29.35-17.63 29.25-16.46 29.17-15.09 29.1-13.72 29.05-12.52 29-11.33 29-10.42 29-9.52 29-9.28L29-9.28Q29-6.05 29.15-2.83L29.15-2.83Q27.73-2.78 26.39-2.73 25.05-2.69 23.63-2.69L23.63-2.69Q23.49-2.69 23.24-2.69 23-2.69 22.75-2.73L22.75-2.73Q22.46-2.73 22.17-2.78L22.17-2.78 22.17-6.35Q22.17-7.86 22.12-9.47 22.07-11.08 22.02-12.3L22.02-12.3Q21.97-13.13 21.88-14.45 21.78-15.77 21.44-17.02 21.09-18.26 20.43-19.17 19.78-20.07 18.6-20.07L18.6-20.07Q18.07-20.07 17.16-19.9 16.26-19.73 15.31-19.46 14.36-19.19 13.55-18.82 12.74-18.46 12.4-18.07L12.4-18.07Q12.3-17.97 12.18-16.97 12.06-15.97 11.96-14.53 11.87-13.09 11.74-11.4 11.62-9.72 11.55-8.25 11.47-6.79 11.4-5.74 11.33-4.69 11.33-4.49L11.33-4.49Q10.35-4.39 9.35-4.32 8.35-4.25 7.37-4.25L7.37-4.25Q6.45-4.25 5.52-4.3 4.59-4.35 3.71-4.44L3.71-4.44Q3.47-10.64 3-16.7 2.54-22.75 2-28.96L2-28.96Q3.37-29.1 4.71-29.22 6.05-29.35 7.42-29.35L7.42-29.35Q8.74-29.35 10.06-29.3 11.38-29.25 12.74-29.2L12.74-29.2 12.11-25Q14.36-26.81 16.43-27.69 18.51-28.56 21.39-28.56L21.39-28.56Q22.51-28.56 23.36-28.3 24.22-28.03 24.93-27.56 25.63-27.1 26.32-26.46 27-25.83 27.78-25.1L27.78-25.1Q28.66-26.46 29.81-27.27 30.96-28.08 32.28-28.52 33.59-28.96 35.06-29.08 36.52-29.2 37.99-29.2L37.99-29.2Q39.16-29.2 40.45-29.13 41.75-29.05 42.94-28.71 44.14-28.37 45.12-27.69 46.09-27 46.63-25.83L46.63-25.83Q47.27-24.41 47.66-22.71 48.05-21 48.27-19.19 48.49-17.38 48.56-15.63 48.63-13.87 48.63-12.35ZM88.52-22.02L88.52-22.02Q88.52-17.92 88.23-13.87 87.94-9.81 87.64-5.76L87.64-5.76Q82.18-5.27 76.76-4.93 71.34-4.59 65.87-4.59L65.87-4.59Q65.38-4.59 64.06-4.61 62.74-4.64 61.28-4.71 59.81-4.79 58.49-4.91 57.18-5.03 56.74-5.27L56.74-5.27Q55.12-6.15 54.49-7.5 53.85-8.84 53.85-10.55L53.85-10.55Q53.85-11.13 53.9-12.11 53.95-13.09 54.1-14.16 54.25-15.23 54.49-16.16 54.73-17.09 55.08-17.53L55.08-17.53Q55.52-18.12 57.08-18.53 58.64-18.95 60.81-19.19 62.99-19.43 65.5-19.58 68.02-19.73 70.31-19.8 72.6-19.87 74.41-19.87 76.22-19.87 77-19.87L77-19.87Q77.15-20.95 77.15-21.97L77.15-21.97Q77.15-22.07 77.15-22.49 77.15-22.9 77.1-23L77.1-23Q76.95-23.29 76.17-23.49 75.39-23.68 74.24-23.78 73.09-23.88 71.75-23.95 70.41-24.02 69.14-24.02 67.87-24.02 66.89-24.02 65.92-24.02 65.48-24.02L65.48-24.02Q62.4-24.02 59.32-23.9 56.25-23.78 53.17-23.68L53.17-23.68Q53.37-25.54 53.49-27.44 53.61-29.35 53.51-31.2L53.51-31.2Q57.08-31.84 60.67-32.1 64.26-32.37 67.92-32.37L67.92-32.37Q69.24-32.37 70.8-32.35 72.36-32.32 73.92-32.25 75.49-32.18 77.02-32.03 78.56-31.88 79.88-31.64L79.88-31.64Q81.25-31.4 82.59-30.76 83.93-30.13 85.1-29.2 86.28-28.27 87.16-27.08 88.03-25.88 88.43-24.51L88.43-24.51Q88.47-24.37 88.5-24.02 88.52-23.68 88.52-23.27 88.52-22.85 88.52-22.51 88.52-22.17 88.52-22.02ZM77.63-10.55L77.63-10.55 77.63-16.8Q76.22-16.85 74.8-16.87 73.39-16.89 71.97-16.89L71.97-16.89Q71.68-16.89 70.33-16.87 68.99-16.85 67.45-16.75 65.92-16.65 64.65-16.5 63.38-16.36 63.18-16.06L63.18-16.06Q62.94-15.67 62.86-15.26 62.79-14.84 62.79-14.4L62.79-14.4Q62.79-14.06 62.84-13.48 62.89-12.89 63.01-12.26 63.13-11.62 63.28-11.08 63.43-10.55 63.67-10.3L63.67-10.3Q63.86-10.06 64.33-9.94 64.79-9.81 65.33-9.74 65.87-9.67 66.4-9.64 66.94-9.62 67.23-9.62L67.23-9.62Q68.41-9.62 69.75-9.72 71.09-9.81 72.48-9.94 73.87-10.06 75.19-10.23 76.51-10.4 77.63-10.55ZM126.7-26.9L126.7-26.9 114.16-17.82Q114.3-17.24 114.74-15.94 115.18-14.65 115.72-13.26 116.25-11.87 116.87-10.67 117.48-9.47 118.01-9.13L118.01-9.13Q118.35-8.89 118.89-8.74 119.43-8.59 119.99-8.5 120.55-8.4 121.11-8.37 121.67-8.35 122.07-8.35L122.07-8.35Q122.75-8.35 123.48-8.4 124.21-8.45 124.9-8.54L124.9-8.54Q124.8-7.91 124.75-7.25 124.7-6.59 124.7-5.91L124.7-5.91Q124.7-4.74 124.75-3.56 124.8-2.39 124.8-1.27L124.8-1.27Q124.46-1.22 123.6-1.15 122.75-1.07 121.65-1 120.55-0.93 119.33-0.83 118.11-0.73 117.06-0.66 116.01-0.59 115.25-0.59 114.5-0.59 114.3-0.68L114.3-0.68Q113.47-1.07 112.69-1.51 111.91-1.95 111.37-2.73L111.37-2.73Q111.13-3.08 110.57-4.59 110-6.1 109.39-7.91 108.78-9.72 108.27-11.28 107.76-12.84 107.61-13.28L107.61-13.28 102.92-10.25 102.92-1.76 93.26-0.93Q93.55-7.76 93.89-14.53 94.23-21.29 94.23-28.17L94.23-28.17Q94.23-30.27 94.21-32.32 94.18-34.38 94.14-36.52L94.14-36.52Q96.14-36.13 98.12-36.04 100.09-35.94 102.09-35.74L102.09-35.74 102.09-17.48Q105.9-19.82 109.54-22.27 113.18-24.71 116.6-27.64L116.6-27.64Q119.18-27.34 121.65-27.2 124.12-27.05 126.7-26.9ZM160.64-18.12L160.64-18.12Q154.24-17.77 147.89-17.55 141.55-17.33 135.15-17.09L135.15-17.09Q135.1-16.89 135.1-16.7 135.1-16.5 135.1-16.31L135.1-16.31Q135.1-14.65 135.86-13.77 136.61-12.89 137.74-12.52 138.86-12.16 140.23-12.11 141.59-12.06 142.77-12.06L142.77-12.06Q146.04-12.06 149.31-12.28 152.58-12.5 155.9-12.74L155.9-12.74 156.29-4.98Q153.07-4.83 149.87-4.74 146.67-4.64 143.45-4.64L143.45-4.64Q142.77-4.64 140.93-4.66 139.1-4.69 137.03-4.81 134.95-4.93 133.15-5.13 131.34-5.32 130.75-5.66L130.75-5.66Q129.24-6.54 128.39-7.91 127.53-9.28 127.07-10.89 126.6-12.5 126.43-14.18 126.26-15.87 126.21-17.43L126.21-17.43Q126.16-17.68 126.19-17.94 126.21-18.21 126.21-18.46L126.21-18.46Q126.21-21.04 126.77-23.27 127.34-25.49 128.85-27.59L128.85-27.59Q129.88-29.05 131.88-30.03 133.88-31.01 136.22-31.57 138.57-32.13 140.91-32.35 143.25-32.57 144.96-32.57L144.96-32.57Q146.48-32.57 148.67-32.3 150.87-32.03 153.04-31.4 155.22-30.76 156.97-29.76 158.73-28.76 159.37-27.29L159.37-27.29Q159.47-27 159.59-26.29 159.71-25.59 159.86-24.68 160-23.78 160.12-22.75 160.25-21.73 160.34-20.8 160.44-19.87 160.51-19.14 160.59-18.41 160.64-18.12ZM137.69-21.14L154-21.68Q153.7-23.83 152.9-25.07 152.09-26.32 150.9-26.93 149.7-27.54 148.16-27.71 146.62-27.88 144.87-27.88L144.87-27.88Q144.28-27.88 143.4-27.86 142.52-27.83 141.64-27.71 140.76-27.59 139.98-27.34 139.2-27.1 138.76-26.66L138.76-26.66Q138.42-26.37 138.2-25.85 137.98-25.34 137.83-24.76 137.69-24.17 137.61-23.61 137.54-23.05 137.54-22.66L137.54-22.66Q137.54-21.88 137.69-21.14L137.69-21.14ZM192.81-32.67L192.81-32.67Q192.81-31.69 192.39-30.83 191.98-29.98 191.27-29.35 190.56-28.71 189.68-28.34 188.81-27.98 187.93-27.98L187.93-27.98Q186.95-27.98 186.1-28.42 185.24-28.86 184.61-29.54 183.97-30.22 183.63-31.13 183.29-32.03 183.29-32.96L183.29-32.96Q183.29-33.89 183.65-34.69 184.02-35.5 184.63-36.08 185.24-36.67 186.05-37.01 186.85-37.35 187.78-37.35L187.78-37.35Q188.71-37.35 189.61-36.99 190.51-36.62 191.22-35.96 191.93-35.3 192.37-34.45 192.81-33.59 192.81-32.67ZM194.81-24.37L194.81-24.37Q194.57-21.78 194.42-19.24 194.27-16.7 194.13-14.16L194.13-14.16Q193.93-11.18 193.47-8.25 193.01-5.32 192.42-2.39L192.42-2.39 184.95-1.61Q184.95-3.17 184.97-4.69 185-6.2 185-7.76L185-7.76Q185-11.77 184.85-15.77 184.7-19.78 184.56-23.78L184.56-23.78Q187.15-23.88 189.66-24.07 192.18-24.27 194.81-24.37ZM224.11-8.64L224.11-8.64 223.28-0.05Q221.71 0.05 220.15 0.12 218.59 0.2 217.03 0.2L217.03 0.2Q216.2 0.2 214.83 0.15 213.46 0.1 212-0.02 210.53-0.15 209.21-0.37 207.9-0.59 207.11-0.93L207.11-0.93Q205.94-1.46 205.19-2.34 204.43-3.22 203.94-4.27 203.45-5.32 203.16-6.52 202.87-7.71 202.72-8.89L202.72-8.89Q202.57-10.01 202.5-11.3 202.43-12.6 202.4-13.96 202.38-15.33 202.38-16.63 202.38-17.92 202.38-19.04L202.38-19.04 202.38-20.51 199.35-20.51Q199.55-22.71 199.57-24.85 199.59-27 199.79-29.2L199.79-29.2 202.72-29.1 202.72-36.33Q205.5-35.79 208.26-35.77 211.02-35.74 213.8-35.55L213.8-35.55 213.71-28.08 217.81-27.83Q217.81-27.49 217.83-27.2 217.86-26.9 217.86-26.56L217.86-26.56Q217.86-25.2 217.64-23.9 217.42-22.61 217.07-21.29L217.07-21.29 213.51-21.29Q213.41-19.04 213.36-16.8 213.32-14.55 213.32-12.3L213.32-12.3Q213.32-11.23 213.39-10.38 213.46-9.52 213.78-8.94 214.1-8.35 214.83-8.06 215.56-7.76 216.88-7.76L216.88-7.76Q218.69-7.76 220.49-8.01 222.3-8.25 224.11-8.64ZM277.67-18.12L277.67-18.12Q271.27-17.77 264.92-17.55 258.57-17.33 252.18-17.09L252.18-17.09Q252.13-16.89 252.13-16.7 252.13-16.5 252.13-16.31L252.13-16.31Q252.13-14.65 252.89-13.77 253.64-12.89 254.77-12.52 255.89-12.16 257.26-12.11 258.62-12.06 259.79-12.06L259.79-12.06Q263.07-12.06 266.34-12.28 269.61-12.5 272.93-12.74L272.93-12.74 273.32-4.98Q270.1-4.83 266.9-4.74 263.7-4.64 260.48-4.64L260.48-4.64Q259.79-4.64 257.96-4.66 256.13-4.69 254.06-4.81 251.98-4.93 250.18-5.13 248.37-5.32 247.78-5.66L247.78-5.66Q246.27-6.54 245.41-7.91 244.56-9.28 244.1-10.89 243.63-12.5 243.46-14.18 243.29-15.87 243.24-17.43L243.24-17.43Q243.19-17.68 243.22-17.94 243.24-18.21 243.24-18.46L243.24-18.46Q243.24-21.04 243.8-23.27 244.36-25.49 245.88-27.59L245.88-27.59Q246.9-29.05 248.91-30.03 250.91-31.01 253.25-31.57 255.6-32.13 257.94-32.35 260.28-32.57 261.99-32.57L261.99-32.57Q263.51-32.57 265.7-32.3 267.9-32.03 270.07-31.4 272.25-30.76 274-29.76 275.76-28.76 276.4-27.29L276.4-27.29Q276.49-27 276.62-26.29 276.74-25.59 276.88-24.68 277.03-23.78 277.15-22.75 277.27-21.73 277.37-20.8 277.47-19.87 277.54-19.14 277.62-18.41 277.67-18.12ZM254.72-21.14L271.02-21.68Q270.73-23.83 269.93-25.07 269.12-26.32 267.92-26.93 266.73-27.54 265.19-27.71 263.65-27.88 261.89-27.88L261.89-27.88Q261.31-27.88 260.43-27.86 259.55-27.83 258.67-27.71 257.79-27.59 257.01-27.34 256.23-27.1 255.79-26.66L255.79-26.66Q255.45-26.37 255.23-25.85 255.01-25.34 254.86-24.76 254.72-24.17 254.64-23.61 254.57-23.05 254.57-22.66L254.57-22.66Q254.57-21.88 254.72-21.14L254.72-21.14ZM315.8-22.02L315.8-22.02Q315.8-17.92 315.5-13.87 315.21-9.81 314.92-5.76L314.92-5.76Q309.45-5.27 304.03-4.93 298.61-4.59 293.14-4.59L293.14-4.59Q292.65-4.59 291.33-4.61 290.02-4.64 288.55-4.71 287.09-4.79 285.77-4.91 284.45-5.03 284.01-5.27L284.01-5.27Q282.4-6.15 281.76-7.5 281.13-8.84 281.13-10.55L281.13-10.55Q281.13-11.13 281.18-12.11 281.23-13.09 281.37-14.16 281.52-15.23 281.76-16.16 282.01-17.09 282.35-17.53L282.35-17.53Q282.79-18.12 284.35-18.53 285.92-18.95 288.09-19.19 290.26-19.43 292.78-19.58 295.29-19.73 297.58-19.8 299.88-19.87 301.69-19.87 303.49-19.87 304.27-19.87L304.27-19.87Q304.42-20.95 304.42-21.97L304.42-21.97Q304.42-22.07 304.42-22.49 304.42-22.9 304.37-23L304.37-23Q304.23-23.29 303.44-23.49 302.66-23.68 301.52-23.78 300.37-23.88 299.03-23.95 297.68-24.02 296.41-24.02 295.14-24.02 294.17-24.02 293.19-24.02 292.75-24.02L292.75-24.02Q289.67-24.02 286.6-23.9 283.52-23.78 280.45-23.68L280.45-23.68Q280.64-25.54 280.76-27.44 280.89-29.35 280.79-31.2L280.79-31.2Q284.35-31.84 287.94-32.1 291.53-32.37 295.19-32.37L295.19-32.37Q296.51-32.37 298.07-32.35 299.64-32.32 301.2-32.25 302.76-32.18 304.3-32.03 305.84-31.88 307.16-31.64L307.16-31.64Q308.52-31.4 309.87-30.76 311.21-30.13 312.38-29.2 313.55-28.27 314.43-27.08 315.31-25.88 315.7-24.51L315.7-24.51Q315.75-24.37 315.77-24.02 315.8-23.68 315.8-23.27 315.8-22.85 315.8-22.51 315.8-22.17 315.8-22.02ZM304.91-10.55L304.91-10.55 304.91-16.8Q303.49-16.85 302.08-16.87 300.66-16.89 299.25-16.89L299.25-16.89Q298.95-16.89 297.61-16.87 296.27-16.85 294.73-16.75 293.19-16.65 291.92-16.5 290.65-16.36 290.46-16.06L290.46-16.06Q290.21-15.67 290.14-15.26 290.07-14.84 290.07-14.4L290.07-14.4Q290.07-14.06 290.11-13.48 290.16-12.89 290.29-12.26 290.41-11.62 290.55-11.08 290.7-10.55 290.94-10.3L290.94-10.3Q291.14-10.06 291.6-9.94 292.07-9.81 292.6-9.74 293.14-9.67 293.68-9.64 294.22-9.62 294.51-9.62L294.51-9.62Q295.68-9.62 297.02-9.72 298.37-9.81 299.76-9.94 301.15-10.06 302.47-10.23 303.79-10.4 304.91-10.55ZM348.12-33.89L348.12-33.89 347.83-27.54Q346.31-27.64 344.8-27.69 343.29-27.73 341.77-27.73L341.77-27.73Q341.14-27.73 339.97-27.71 338.79-27.69 337.35-27.64 335.91-27.59 334.4-27.49 332.89-27.39 331.62-27.29 330.35-27.2 329.47-27.05 328.59-26.9 328.39-26.76L328.39-26.76Q327.76-26.12 327.76-25.29L327.76-25.29Q327.76-24.76 328.05-24.41L328.05-24.41Q328.15-24.27 329.13-24.17 330.1-24.07 331.52-24 332.93-23.93 334.62-23.9 336.3-23.88 337.84-23.85 339.38-23.83 340.58-23.78 341.77-23.73 342.26-23.68L342.26-23.68Q344.12-23.44 345.21-22.61 346.31-21.78 346.9-20.53 347.48-19.29 347.66-17.72 347.83-16.16 347.83-14.55L347.83-14.55Q347.83-13.77 347.7-12.7 347.58-11.62 347.34-10.55 347.09-9.47 346.63-8.54 346.17-7.62 345.53-7.08L345.53-7.08Q344.8-6.49 343.16-6.1 341.53-5.71 339.65-5.47 337.77-5.22 336.01-5.13 334.25-5.03 333.32-5.03L333.32-5.03Q330.1-5.03 326.88-5.4 323.66-5.76 320.48-6.2L320.48-6.2 320.48-15.53Q323.56-14.89 326.66-14.79 329.76-14.7 332.89-14.45L332.89-14.45Q333.52-14.4 334.81-14.38 336.11-14.36 337.43-14.43 338.74-14.5 339.82-14.75 340.89-14.99 341.14-15.43L341.14-15.43Q341.23-15.58 341.23-15.77 341.23-15.97 341.23-16.11L341.23-16.11Q341.23-16.5 341.16-17.11 341.09-17.72 340.84-18.07L340.84-18.07Q340.8-18.12 340.5-18.14 340.21-18.16 340.16-18.16L340.16-18.16Q337.43-18.31 334.69-18.33 331.96-18.36 329.17-18.6L329.17-18.6Q328.05-18.7 326.9-18.82 325.76-18.95 324.63-19.19L324.63-19.19Q323.71-19.38 322.95-19.63 322.19-19.87 321.63-20.26 321.07-20.65 320.68-21.26 320.29-21.88 320.14-22.9L320.14-22.9Q320.04-23.24 320.04-23.56 320.04-23.88 320.04-24.27L320.04-24.27Q320.04-25.15 320.14-26.27 320.24-27.39 320.51-28.52 320.78-29.64 321.19-30.64 321.61-31.64 322.29-32.28L322.29-32.28Q322.73-32.71 323.85-33.01 324.98-33.3 326.44-33.52 327.9-33.74 329.56-33.89 331.23-34.03 332.76-34.11 334.3-34.18 335.55-34.2 336.79-34.23 337.43-34.23L337.43-34.23Q340.16-34.23 342.82-34.13 345.48-34.03 348.12-33.89ZM386.3-9.62L386.3-9.62Q386.3-9.08 386.3-8.06 386.3-7.03 386.25-5.74 386.2-4.44 386.13-3.05 386.06-1.66 385.96-0.42 385.86 0.83 385.69 1.78 385.52 2.73 385.32 3.13L385.32 3.13Q384.49 4.44 383.79 5.15 383.08 5.86 382.25 6.15 381.42 6.45 380.37 6.47 379.32 6.49 377.9 6.49L377.9 6.49Q373.21 6.49 368.58 6.13 363.94 5.76 359.3 5.27L359.3 5.27 359.3-1.42Q359.74-1.42 361.23-1.44 362.72-1.46 364.72-1.51 366.72-1.56 368.97-1.66 371.21-1.76 373.17-1.9 375.12-2.05 376.54-2.25 377.95-2.44 378.29-2.73L378.29-2.73Q378.73-3.08 379-3.78 379.27-4.49 379.39-5.27 379.51-6.05 379.56-6.84 379.61-7.62 379.61-8.11L379.61-8.11Q379.61-8.59 379.61-9.03 379.61-9.47 379.56-10.01L379.56-10.01Q378.83-8.35 377.61-7.52 376.39-6.69 374.87-6.35 373.36-6.01 371.7-5.98 370.04-5.96 368.53-5.96L368.53-5.96Q365.35-5.96 362.4-6.23 359.45-6.49 357.17-7.62 354.9-8.74 353.51-11.01 352.12-13.28 352.12-17.29L352.12-17.29Q352.12-21.24 352.66-25.17 353.2-29.1 354.03-32.96L354.03-32.96 364.33-32.86Q363.5-29.79 362.86-26.61 362.23-23.44 362.23-20.21L362.23-20.21Q362.23-18.51 362.47-17.43 362.72-16.36 363.35-15.7 363.99-15.04 365.11-14.79 366.23-14.55 367.94-14.55L367.94-14.55Q368.62-14.55 369.63-14.65 370.63-14.75 371.68-14.92 372.73-15.09 373.68-15.38 374.63-15.67 375.17-16.11L375.17-16.11Q375.36-16.26 375.51-17.09 375.66-17.92 375.75-19.07 375.85-20.21 375.9-21.53 375.95-22.85 375.97-24.02 376-25.2 376-26.05 376-26.9 376-27.15L376-27.15Q376-28.81 376-30.44 376-32.08 375.9-33.74L375.9-33.74Q378.29-33.5 380.61-33.33 382.93-33.15 385.32-33.06L385.32-33.06Q385.52-28.32 385.74-23.68 385.96-19.04 386.2-14.31L386.2-14.31Q386.3-13.13 386.3-11.94 386.3-10.74 386.3-9.62Z" opacity="1" transform="matrix(1,0,0,1,0,0)" fill="#3886ce" class="slogan-text-1" data-fill-palette-color="secondary" id="text-1"></path></svg></g></svg></g></svg></g></svg></g><g transform="matrix(1,0,0,1,232.94695582638352,0)"><svg viewBox="0 0 121.47408 121.47408" height="121.47408" width="121.47408"><g><svg></svg></g><g id="icon-0"><svg viewBox="0 0 121.47408 121.47408" height="121.47408" width="121.47408"><g><rect width="110.451432" height="110.451432" x="5.511324000000002" y="5.511324000000002" fill="#fe633d" data-fill-palette-color="accent"></rect><rect width="110.451432" height="110.451432" x="2.6645352591003757e-15" y="2.6645352591003757e-15" fill="#fe633d" opacity="0.5" data-fill-palette-color="accent"></rect></g><g transform="matrix(1,0,0,1,15.74664,15.855130770392684)"><svg viewBox="0 0 89.9808 89.76381845921463" height="89.76381845921463" width="89.9808"><g><svg xmlns="http://www.w3.org/2000/svg" xmlns:xlink="http://www.w3.org/1999/xlink" version="1.1" x="0" y="0" viewBox="22.186037024843102 21.471 57.19696297515689 57.05903704924167" enable-background="new 0 0 100 100" xml:space="preserve" height="89.76381845921463" width="89.9808" class="icon-cg-0" data-fill-palette-color="quaternary" id="cg-0"><g fill="#ffffff" data-fill-palette-color="quaternary"><path d="M67.25 21.471c0 0-0.027 0-0.056 0.028-0.169 0.028-0.31 0.112-0.395 0.225L25.367 63.058c-0.113 0.084-0.197 0.196-0.226 0.337l-2.702 9.771c-0.506 1.769-0.253 3.342 0.76 4.353s2.618 1.264 4.391 0.758l9.711-2.695c0.141-0.028 0.253-0.112 0.338-0.196l41.518-41.418c0.281-0.281 0.281-0.814 0-1.095l-11.26-11.147c-0.141-0.168-0.338-0.253-0.563-0.253C67.307 21.471 67.278 21.471 67.25 21.471L67.25 21.471zM67.363 23.38l10.104 10.024L36.654 74.121l-9.514 2.611c-1.407 0.393-2.336 0.168-2.814-0.337-0.507-0.506-0.76-1.404-0.366-2.809l2.674-9.575L67.363 23.38 67.363 23.38zM41.411 76.872c-0.366 0.057-0.647 0.394-0.675 0.759 0 0.365 0.281 0.729 0.647 0.786 0.225 0.056 0.197 0.028 0.281 0.028 0.113 0 0.253 0.027 0.394 0.027 0.31 0 0.732 0.028 1.267 0.028 1.07 0 2.562 0.028 4.307 0.028 3.491 0 8.079-0.028 12.667-0.028 9.176-0.028 18.296-0.056 18.296-0.056 0.395 0.027 0.788-0.365 0.788-0.786 0-0.422-0.394-0.787-0.788-0.787 0 0-9.12 0.028-18.296 0.057-4.56 0-9.176 0.028-12.667 0-1.745 0-3.209 0-4.278 0C42.818 76.9 42.396 76.9 42.086 76.9c-0.141 0-0.253 0-0.31 0-0.028 0-0.028 0-0.028 0C41.636 76.872 41.523 76.845 41.411 76.872L41.411 76.872z" fill="#ffffff" data-fill-palette-color="quaternary"></path></g></svg></g></svg></g></svg></g></svg></g></svg></g></svg></g></svg></g><defs></defs></svg><rect width="320" height="360" fill="none" stroke="none" visibility="hidden"></rect></g></svg></g></svg>